<?xml version="1.0" standalone="no"?>
<!DOCTYPE svg PUBLIC "-//W3C//DTD SVG 20010904//EN"
 "http://www.w3.org/TR/2001/REC-SVG-20010904/DTD/svg10.dtd">
<svg version="1.0"
    xmlns="http://www.w3.org/2000/svg" width="300.000000pt" height="300.000000pt" viewBox="0 0 300.000000 300.000000" preserveAspectRatio="xMidYMid meet">
    <metadata>
Created by Arun Neupane
    </metadata>
    <g transform="translate(0.000000,300.000000) scale(0.100000,-0.100000)" fill="#000000" stroke="none">
        <path d="M1392 2905 c7 -8 152 -44 156 -40 2 2 -7 6 -20 10 -13 4 -25 11 -28
15 -3 4 -30 10 -60 14 -30 4 -52 4 -48 1z"/>
        <path d="M1215 2840 c-106 -35 -136 -52 -158 -89 -20 -35 -10 -41 18 -11 10
11 15 20 10 20 -4 0 -2 7 5 15 7 9 21 13 30 10 9 -3 23 1 30 10 15 18 115 49
130 40 6 -4 17 -1 25 5 11 9 15 9 15 1 0 -6 -3 -11 -7 -12 -5 -1 -26 -3 -47
-5 -25 -2 -59 -17 -94 -41 -30 -21 -76 -51 -103 -67 -26 -16 -46 -33 -44 -37
6 -9 -14 -24 -50 -37 -16 -5 -39 -13 -49 -18 -14 -5 -17 -4 -12 4 4 7 2 12 -4
12 -7 0 -9 -7 -6 -16 4 -11 2 -15 -8 -11 -15 6 -66 -44 -66 -64 0 -6 -31 -41
-70 -78 -38 -38 -70 -74 -70 -80 0 -6 19 10 41 34 23 25 46 45 52 45 5 0 19
10 30 23 37 41 12 -1 -38 -65 -27 -34 -60 -83 -72 -108 -40 -78 -80 -143 -97
-155 -8 -7 -12 -16 -8 -20 4 -5 -1 -5 -10 -2 -12 4 -28 -4 -49 -24 -25 -24
-30 -35 -24 -57 3 -15 15 -36 26 -47 20 -20 20 -20 4 13 -23 46 -16 64 37 92
33 17 52 36 64 62 9 21 21 38 25 38 5 0 20 20 34 44 24 42 64 68 66 43 0 -7 4
-2 9 11 5 12 13 22 18 22 5 0 8 17 7 38 -2 33 18 88 37 103 5 3 10 20 12 39 2
22 15 44 35 62 34 30 54 36 45 14 -3 -8 0 -17 7 -22 8 -4 10 -3 5 4 -4 7 4 14
21 17 46 10 74 24 68 35 -3 5 -13 6 -23 3 -21 -8 -17 -2 31 36 21 16 67 39
103 51 35 12 64 25 64 30 0 4 8 7 18 6 11 -1 17 6 17 19 0 14 7 20 25 21 14 0
48 10 75 23 64 29 144 22 184 -15 28 -26 45 -31 38 -11 -2 6 -9 11 -14 10 -5
-1 -10 5 -10 13 0 25 25 15 54 -23 15 -21 35 -45 44 -54 9 -9 20 -43 24 -75 6
-54 17 -73 38 -74 9 0 2 35 -29 133 -14 42 -23 81 -20 85 3 5 -16 19 -41 31
-33 16 -48 19 -53 11 -6 -9 -21 -9 -65 0 -32 7 -80 9 -106 6 -25 -4 -57 -2
-70 2 -17 7 -46 2 -104 -18z m-446 -481 c-16 -27 -25 -36 -27 -25 -4 17 37 81
45 72 3 -2 -6 -24 -18 -47z"/>
        <path d="M1679 2809 c30 -77 60 -132 60 -112 1 29 -32 105 -53 122 -15 13 -16
12 -7 -10z"/>
        <path d="M1403 2801 c-12 -19 -8 -31 11 -31 6 0 4 5 -4 10 -13 9 -13 10 1 10
8 0 24 -7 35 -15 19 -15 19 -15 -1 -9 -16 5 -17 4 -5 -5 8 -6 22 -11 31 -11
21 0 85 -95 94 -137 7 -37 24 -54 26 -26 4 67 -21 143 -57 175 -26 23 -90 49
-98 40 -4 -3 -10 -1 -14 5 -6 9 -11 7 -19 -6z"/>
        <path d="M1817 2739 c-45 -29 -47 -33 -48 -80 -1 -27 -2 -53 -3 -59 -1 -5 4
-10 9 -10 6 0 10 3 11 8 0 4 4 19 8 33 8 28 61 65 71 50 3 -6 17 -6 36 1 25 9
38 7 66 -6 36 -17 54 -17 31 1 -22 17 -108 41 -114 32 -3 -5 -10 -9 -15 -9 -6
0 -7 5 -4 10 10 16 -4 12 -34 -11 -37 -27 -57 -22 -35 9 17 25 48 40 104 52
l35 8 -36 1 c-24 1 -50 -9 -82 -30z"/>
        <path d="M1952 2747 c19 -20 58 -39 58 -30 0 9 -52 43 -65 43 -3 0 0 -6 7 -13z"/>
        <path d="M1618 2670 c9 -27 19 -50 22 -50 8 0 6 27 -5 55 -4 11 -9 26 -11 33
-2 6 -8 12 -13 12 -5 0 -2 -22 7 -50z"/>
        <path d="M2061 2694 c4 -11 89 -90 89 -82 0 2 -21 24 -46 48 -26 25 -45 40
-43 34z"/>
        <path d="M1458 2664 c-6 -5 29 -74 37 -74 5 0 -16 63 -25 73 -3 4 -9 5 -12 1z"/>
        <path d="M1145 2640 c-19 -21 -29 -50 -17 -50 7 0 45 70 38 70 -1 0 -11 -9
-21 -20z"/>
        <path d="M1945 2640 c3 -5 25 -18 48 -29 57 -26 97 -67 163 -166 30 -47 58
-85 60 -85 3 0 -9 26 -27 58 -17 31 -40 73 -50 92 -10 19 -34 46 -53 59 -20
13 -33 27 -31 31 5 9 -33 26 -49 22 -4 -2 -13 1 -20 6 -18 14 -48 23 -41 12z"/>
        <path d="M2159 2540 c41 -39 75 -84 97 -128 22 -42 32 -56 29 -37 -4 17 -13
37 -21 46 -8 8 -14 21 -14 27 0 15 -129 152 -144 152 -6 0 18 -27 53 -60z"/>
        <path d="M1971 2576 c-8 -10 -9 -16 -1 -21 5 -3 10 1 10 9 0 9 4 16 10 16 5 0
7 -6 4 -13 -2 -7 14 -28 38 -47 l43 -35 -23 32 c-13 18 -29 36 -37 40 -7 5
-14 12 -14 18 1 16 -17 17 -30 1z"/>
        <path d="M1955 2485 c39 -20 71 -67 86 -130 7 -27 19 -56 26 -63 7 -7 13 -18
13 -23 0 -14 78 -128 132 -190 51 -60 63 -85 25 -53 -13 11 -12 8 3 -7 15 -14
29 -33 33 -42 4 -11 12 -14 23 -10 15 5 15 7 0 15 -9 5 -16 17 -16 28 0 10
-22 42 -48 72 -52 58 -81 100 -87 126 -2 9 -17 49 -33 87 -80 192 -90 205
-154 205 l-33 0 30 -15z"/>
        <path d="M1967 2428 c4 -7 8 -22 9 -34 0 -12 4 -30 9 -40 4 -10 9 -26 11 -34
2 -8 8 -33 13 -55 9 -34 9 -30 5 30 -5 70 -29 145 -46 145 -5 0 -6 -6 -1 -12z"/>
        <path d="M1146 2370 c4 -36 8 -67 10 -69 9 -10 3 106 -6 119 -8 10 -9 -5 -4
-50z"/>
        <path d="M1780 2411 c0 -11 62 -52 69 -45 2 2 -6 15 -19 29 -23 25 -50 33 -50
16z"/>
        <path d="M2170 2370 c0 -27 23 -87 42 -111 16 -19 18 -20 12 -4 -4 11 -14 41
-23 67 -17 48 -31 71 -31 48z"/>
        <path d="M800 2278 c-20 -48 -53 -87 -73 -88 -4 0 -3 9 3 21 7 11 9 23 6 27
-4 3 -16 -18 -28 -46 -18 -42 -28 -54 -52 -60 -16 -4 -39 -20 -50 -35 -18 -25
-19 -29 -4 -59 13 -29 13 -37 -3 -82 -10 -27 -15 -55 -11 -63 6 -9 13 3 22 37
8 28 19 50 27 50 7 0 13 6 13 13 0 15 61 87 73 87 10 0 -43 -83 -60 -93 -8 -5
-10 -14 -5 -23 5 -8 3 -38 -3 -67 -10 -48 -19 -72 -48 -134 -5 -12 -29 -32
-53 -45 -24 -13 -44 -27 -44 -31 0 -4 8 -4 18 2 9 5 34 13 54 19 l38 10 -1
-53 c-1 -29 2 -58 5 -64 4 -6 -2 -27 -15 -47 -17 -28 -19 -40 -11 -57 10 -22
11 -22 11 4 1 32 24 64 39 55 16 -10 15 -46 -2 -65 -7 -9 -16 -38 -20 -65 -5
-42 -4 -47 9 -36 8 7 15 24 15 39 0 33 13 53 31 49 7 -2 14 6 15 17 2 31 33
85 48 85 17 0 10 -34 -10 -51 -8 -6 -14 -20 -14 -30 0 -11 -5 -19 -11 -19 -8
0 -7 -5 2 -16 8 -10 21 -13 36 -9 19 4 23 1 23 -17 0 -13 -7 -31 -14 -40 -18
-24 -46 -23 -46 2 0 11 -9 29 -20 40 -15 15 -20 16 -20 6 0 -8 5 -18 10 -21 6
-3 10 -24 10 -46 0 -37 13 -53 23 -26 2 6 8 9 12 4 5 -4 2 -18 -5 -32 -7 -14
-10 -28 -6 -32 8 -9 47 38 40 49 -2 3 4 13 14 20 18 12 52 68 52 84 0 3 -7 1
-15 -6 -9 -7 -19 -10 -23 -6 -4 4 0 13 9 19 17 14 12 53 -14 103 -23 45 -45
50 -79 17 -15 -15 -28 -23 -29 -17 -3 23 4 60 12 71 7 7 6 12 -3 15 -8 3 -5
14 11 36 25 36 9 44 -19 10 -15 -18 -21 -20 -31 -11 -10 10 -8 17 9 36 26 27
28 37 7 37 -11 0 -13 5 -6 23 21 55 31 96 31 126 0 19 4 30 10 26 6 -4 10 6
10 23 0 16 10 51 22 78 12 27 22 52 23 56 0 4 8 17 18 28 9 11 17 27 17 35 0
9 7 18 16 22 8 3 13 12 9 21 -3 8 -2 20 3 26 9 12 32 87 32 105 0 27 -19 7
-40 -41z m-25 -90 c-10 -32 -57 -79 -73 -73 -7 2 -12 -1 -10 -8 2 -6 -10 -29
-26 -50 -26 -34 -31 -37 -45 -23 -12 12 -12 19 -3 28 14 14 16 32 2 23 -5 -3
-10 -2 -10 2 0 5 24 20 53 34 39 18 51 29 49 43 -2 11 1 15 8 11 6 -4 20 2 31
14 25 27 32 27 24 -1z m-5 -682 c0 -14 -5 -28 -11 -32 -17 -10 -32 12 -24 35
9 29 35 27 35 -3z"/>
        <path d="M1887 2310 c5 -20 48 -60 64 -60 17 0 -13 47 -41 63 -27 16 -28 16
-23 -3z"/>
        <path d="M2240 2294 c0 -6 14 -30 30 -52 17 -23 30 -45 30 -49 0 -3 7 -15 17
-25 29 -32 -3 -19 -48 20 -71 60 -88 69 -33 16 28 -27 63 -57 78 -67 29 -20
64 -82 53 -93 -4 -4 -14 3 -24 15 -10 12 -26 23 -35 25 -10 1 -32 15 -50 32
-18 16 -26 20 -18 9 25 -34 43 -50 56 -50 13 0 103 -94 104 -107 0 -4 16 -23
35 -42 41 -42 52 -79 35 -120 -6 -17 -12 -42 -11 -55 1 -19 -2 -21 -13 -11 -8
6 -12 18 -9 25 2 8 -2 36 -11 62 -8 26 -20 68 -26 92 -11 42 -45 83 -85 103
-11 5 -5 -2 13 -17 36 -30 56 -63 67 -115 7 -31 6 -33 -9 -21 -9 7 -16 26 -16
41 0 15 -7 34 -17 41 -15 13 -15 12 -5 -7 6 -11 9 -30 6 -41 -4 -14 6 -32 30
-58 46 -48 50 -81 4 -39 -20 19 -29 23 -25 12 12 -33 -11 -18 -49 32 -40 52
-55 52 -34 -1 14 -32 87 -115 77 -86 -9 25 3 21 47 -17 34 -29 39 -39 38 -72
-1 -28 1 -35 10 -26 9 9 16 8 30 -5 10 -9 18 -11 18 -5 0 6 -4 14 -10 17 -5 3
-10 15 -10 26 0 10 -4 19 -9 19 -11 0 -1 84 10 88 5 2 9 25 10 50 0 39 2 43
10 25 26 -65 29 -69 23 -33 -4 23 -25 55 -60 93 -62 67 -79 97 -89 152 -4 22
-14 46 -23 53 -9 6 -17 18 -18 26 -1 8 -19 41 -40 73 -45 70 -54 81 -54 67z"/>
        <path d="M2314 2265 c9 -13 16 -30 16 -38 0 -7 12 -24 26 -38 l26 -24 -31 63
c-17 34 -36 62 -42 62 -7 0 -5 -10 5 -25z"/>
        <path d="M1964 2212 c-8 -12 -7 -29 2 -60 8 -24 16 -81 20 -126 3 -44 12 -106
20 -137 19 -77 18 -142 -5 -230 -10 -41 -21 -121 -25 -179 -6 -101 -27 -194
-47 -205 -5 -4 -9 -111 -9 -248 l0 -243 -37 -74 c-53 -104 -57 -110 -65 -110
-5 0 -8 -9 -8 -19 0 -11 -7 -27 -16 -35 -8 -9 -13 -20 -10 -25 6 -9 -12 -59
-24 -71 -16 -15 -90 -128 -119 -182 -11 -20 -33 -42 -48 -48 -29 -13 -93 -88
-93 -108 0 -17 -18 -15 -48 7 -34 24 -102 52 -102 43 0 -5 18 -19 41 -32 83
-51 84 -53 64 -84 l-19 -28 -20 28 c-11 16 -47 56 -79 89 -46 47 -54 52 -35
24 28 -43 134 -159 145 -159 13 0 63 68 79 108 16 37 90 122 107 122 11 0 46
42 47 56 0 6 24 38 54 73 65 75 154 229 191 331 28 77 37 169 22 225 l-7 30
20 -24 c11 -13 27 -49 36 -79 20 -69 14 -201 -17 -397 -21 -126 -31 -345 -17
-345 11 0 26 68 32 150 3 41 8 86 10 100 3 14 8 48 11 75 4 28 9 61 11 75 9
49 14 96 18 162 2 36 6 71 10 76 3 6 2 13 -4 17 -16 10 -12 45 5 45 20 0 19 3
-15 53 -35 49 -32 74 8 75 15 1 51 2 80 3 63 2 72 12 33 35 -16 10 -32 27 -35
38 -5 17 -8 18 -15 6 -5 -8 -8 -17 -5 -21 2 -5 -5 -6 -16 -4 -20 4 -25 -9 -20
-44 2 -16 -9 -10 -57 33 -25 21 -30 16 -12 -13 8 -12 9 -23 2 -35 -9 -16 -12
-14 -30 17 -19 31 -21 52 -21 176 0 77 3 141 7 141 10 0 38 87 46 142 6 46 17
58 54 58 25 0 71 70 76 116 3 23 2 31 -3 19 -4 -11 -20 -39 -35 -63 -25 -38
-32 -43 -60 -40 l-32 3 3 70 c2 46 10 85 24 115 17 34 22 61 20 113 0 38 -6
74 -11 81 -5 6 -13 43 -16 81 -12 122 -13 129 -28 198 -18 80 -19 82 -33 59z"/>
        <path d="M2366 2145 c4 -9 15 -20 25 -25 22 -12 74 -85 105 -150 13 -25 23
-37 23 -27 2 40 -95 183 -140 207 -15 9 -17 7 -13 -5z"/>
        <path d="M1874 2075 c23 -18 15 -30 -11 -17 -10 5 -32 12 -50 15 -26 5 -31 3
-26 -8 3 -8 1 -15 -5 -15 -6 0 -12 4 -14 10 -4 14 -105 17 -118 4 -18 -18 8
-63 34 -58 11 3 66 7 122 11 86 5 104 3 127 -12 41 -26 34 0 -12 46 -21 22
-45 39 -52 39 -9 -1 -8 -5 5 -15z"/>
        <path d="M1263 2067 c1 -5 23 -10 48 -12 25 -1 55 -6 67 -9 16 -6 22 -3 22 8
0 11 -10 17 -32 18 -80 4 -108 3 -105 -5z"/>
        <path d="M1557 2044 c-10 -10 22 -64 38 -64 8 0 15 9 15 21 0 11 -4 18 -9 14
-5 -3 -16 4 -24 15 -7 11 -17 17 -20 14z"/>
        <path d="M1463 1993 c3 -5 -3 -33 -13 -63 -18 -56 -17 -77 1 -50 7 11 9 -6 6
-57 -4 -68 3 -107 16 -86 7 11 9 52 8 156 -1 37 3 77 9 87 9 17 7 20 -10 20
-12 0 -19 -3 -17 -7z"/>
        <path d="M1689 1957 c-19 -13 -34 -32 -35 -44 -1 -11 -4 -25 -7 -30 -4 -6 4
-10 17 -10 15 0 23 4 20 12 -3 6 2 17 9 24 12 9 16 7 21 -14 6 -22 11 -26 38
-23 27 3 36 10 55 47 1 1 11 -3 22 -11 12 -8 19 -17 16 -20 -3 -3 11 -8 32
-11 53 -9 63 6 27 44 -58 62 -153 78 -215 36z m145 -7 c23 -11 47 -29 54 -40
12 -20 11 -20 -30 3 -61 35 -97 41 -142 22 -47 -20 -56 -14 -20 14 34 27 85
27 138 1z"/>
        <path d="M1203 1906 c-26 -16 -41 -32 -34 -34 7 -2 26 8 42 24 31 30 31 30 48
-3 8 -16 21 -23 40 -23 23 0 31 6 39 30 10 28 9 30 -21 34 -52 8 -66 4 -114
-28z"/>
        <path d="M1365 1894 c0 -16 6 -24 18 -24 9 0 17 7 17 15 0 8 -8 19 -17 24 -15
7 -18 5 -18 -15z"/>
        <path d="M1650 1848 c0 -14 44 -32 48 -20 2 8 11 8 28 1 34 -12 97 -12 89 1
-4 6 -10 8 -14 5 -5 -2 -30 1 -57 9 -53 14 -94 16 -94 4z"/>
        <path d="M2242 1733 c7 -16 18 -36 26 -45 8 -9 11 -21 8 -26 -3 -5 1 -9 9 -9
21 0 19 7 -16 60 -35 53 -44 60 -27 20z"/>
        <path d="M1025 1670 c10 -67 23 -117 24 -90 0 14 -6 48 -14 75 -11 36 -13 40
-10 15z"/>
        <path d="M2370 1625 c31 -61 37 -81 26 -83 -28 -6 -27 -36 2 -78 17 -23 33
-51 37 -63 3 -12 10 -19 14 -16 15 8 -1 58 -26 81 -23 21 -32 64 -13 64 6 0
10 -7 10 -15 0 -9 10 -26 21 -38 20 -20 21 -20 13 -2 -5 11 -9 45 -9 77 0 31
-2 55 -5 53 -3 -2 -18 19 -33 46 -27 46 -46 66 -33 34 7 -20 -3 -19 -26 2 -12
11 -4 -12 22 -62z"/>
        <path d="M2343 1595 c12 -36 25 -61 30 -56 7 7 -36 121 -47 121 -2 0 5 -29 17
-65z"/>
        <path d="M2031 1623 c-10 -21 -8 -23 18 -23 29 0 45 18 33 37 -12 18 -40 10
-51 -14z"/>
        <path d="M1410 1616 c0 -15 21 -26 51 -26 23 0 37 -29 20 -39 -8 -5 -7 -12 4
-27 13 -17 14 -17 15 -1 0 9 6 17 14 17 7 0 16 10 20 23 8 31 7 37 -4 37 -5 0
-10 -8 -10 -17 -1 -15 -3 -15 -19 4 -30 36 -91 55 -91 29z"/>
        <path d="M1597 1619 c-21 -12 -13 -29 13 -29 10 0 20 -6 23 -12 3 -10 9 -9 22
4 15 14 16 20 5 32 -14 18 -37 20 -63 5z"/>
        <path d="M2244 1544 c3 -9 6 -24 6 -35 0 -12 7 -19 20 -19 11 0 20 -4 20 -10
0 -5 -5 -10 -10 -10 -6 0 -5 -8 2 -20 11 -17 10 -26 -8 -57 -23 -40 -44 -54
-44 -29 0 9 -5 16 -11 16 -6 0 -7 5 -2 13 13 19 10 75 -4 70 -6 -2 -11 2 -10
9 0 7 -1 27 -2 43 -2 26 -4 27 -10 10 -5 -11 -6 -45 -3 -75 2 -30 5 -70 7 -88
2 -31 15 -59 15 -32 0 7 3 10 6 7 4 -4 2 -12 -3 -19 -20 -26 -21 -55 -2 -67
11 -6 19 -21 19 -34 0 -18 2 -19 11 -7 8 11 12 12 16 3 2 -7 4 -15 3 -18 -1
-7 45 -45 54 -45 15 0 4 19 -15 25 -11 4 -18 12 -16 18 2 7 -10 30 -28 52 -32
40 -36 65 -10 65 8 0 11 7 8 20 -4 14 0 20 11 20 9 0 16 8 16 20 0 11 7 20 15
20 12 0 15 -15 15 -75 0 -74 13 -100 26 -50 3 14 10 25 15 25 5 0 4 8 -2 18
-8 12 -7 25 2 47 6 17 11 42 10 57 -1 14 3 29 9 33 5 3 8 11 5 16 -8 13 -43
11 -47 -2 -2 -6 -17 14 -33 45 -16 31 -36 56 -43 56 -9 0 -12 -6 -8 -16z"/>
        <path d="M1530 1500 c0 -23 4 -30 20 -30 19 0 40 27 40 52 0 10 -2 10 -9 -1
-6 -9 -11 -10 -15 -2 -14 23 -36 11 -36 -19z"/>
        <path d="M1700 1476 c0 -4 16 -14 36 -22 24 -10 34 -20 30 -30 -4 -9 1 -14 14
-14 11 0 20 5 20 10 0 15 -38 50 -54 50 -8 0 -21 3 -30 6 -9 3 -16 3 -16 0z"/>
        <path d="M2130 1421 c-10 -25 -9 -34 3 -51 14 -20 15 -19 18 29 4 58 -3 65
-21 22z"/>
        <path d="M1660 1421 c0 -5 -25 -11 -55 -13 -30 -1 -55 1 -55 5 0 5 -6 5 -12 0
-7 -4 -35 -8 -63 -8 -60 -1 -158 -16 -151 -22 3 -3 67 -4 143 -2 237 6 246 5
287 -20 20 -13 39 -21 41 -19 10 10 -9 48 -24 48 -10 0 -36 9 -59 20 -46 23
-52 24 -52 11z"/>
        <path d="M807 1368 l-28 -28 26 10 c14 6 28 10 29 10 1 0 3 -20 3 -45 0 -25
-5 -45 -10 -45 -5 0 -7 7 -3 15 3 8 1 15 -5 15 -7 0 -9 -12 -5 -33 4 -21 1
-40 -9 -54 -11 -15 -12 -22 -3 -25 7 -3 8 -10 4 -17 -7 -10 -10 -11 -16 -1 -6
9 -11 7 -19 -9 -7 -11 -20 -21 -31 -21 -10 0 -22 -5 -26 -12 -5 -8 2 -9 25 -5
23 5 33 3 37 -8 9 -22 23 -18 17 5 -7 28 24 38 42 14 8 -11 15 -25 15 -33 0
-13 62 -81 74 -81 3 0 6 7 6 15 0 11 11 15 36 15 31 0 35 2 24 15 -7 8 -25 15
-41 15 -19 0 -34 8 -44 24 -9 13 -25 26 -35 29 -21 5 -28 37 -8 37 7 0 5 5 -5
13 -13 10 -15 21 -9 62 5 30 13 49 20 48 7 -2 12 4 12 12 0 8 -6 14 -12 13 -7
-2 -12 4 -10 13 1 9 -4 27 -11 41 l-12 25 -28 -29z"/>
        <path d="M2070 1386 c0 -17 46 -74 53 -66 3 3 -9 23 -24 44 -19 25 -29 33 -29
22z"/>
        <path d="M2161 1353 c0 -17 4 -35 10 -38 15 -10 24 2 12 17 -6 7 -13 22 -16
33 -3 13 -5 9 -6 -12z"/>
        <path d="M1433 1275 c4 -12 68 -34 111 -39 30 -2 106 27 106 42 0 4 -49 7
-110 7 -69 0 -109 -4 -107 -10z"/>
        <path d="M1854 1202 c-87 -80 -157 -128 -184 -127 -8 0 -19 -5 -25 -11 -5 -6
-21 -14 -35 -17 -14 -3 -34 -7 -45 -10 -11 -2 -42 -8 -70 -12 -49 -7 -49 -8
-21 -18 19 -6 51 -6 102 3 60 10 89 22 144 59 69 45 180 146 180 163 0 12 -1
11 -46 -30z"/>
        <path d="M2144 1216 c-3 -8 2 -28 10 -45 9 -17 16 -55 16 -91 0 -33 4 -60 10
-60 6 0 10 5 10 11 0 8 4 8 13 1 10 -9 13 0 14 43 1 38 -2 52 -11 49 -18 -7
-59 88 -43 98 9 6 9 8 -1 8 -7 0 -15 -6 -18 -14z"/>
        <path d="M2194 1215 c-8 -21 18 -53 61 -75 l38 -19 -47 45 c-26 24 -44 49 -41
54 3 6 4 10 0 10 -3 0 -8 -7 -11 -15z"/>
        <path d="M2132 1051 c0 -22 3 -28 14 -24 16 6 18 19 4 28 -6 4 -8 11 -5 16 4
5 2 9 -3 9 -5 0 -9 -13 -10 -29z"/>
        <path d="M960 1002 c0 -9 -9 -23 -20 -30 -24 -15 -25 -30 -5 -52 19 -21 60
-15 78 10 16 22 87 37 87 17 0 -7 -14 -23 -30 -36 -17 -12 -41 -39 -54 -60
-39 -62 -213 -186 -330 -236 -113 -48 -142 -58 -341 -116 -76 -22 -176 -56
-221 -75 -75 -32 -84 -40 -98 -75 -18 -44 -21 -93 -6 -84 5 3 16 27 24 53 l15
47 1 -45 2 -45 19 60 c20 66 32 75 139 114 61 22 221 70 259 77 21 4 23 3 11
-11 -10 -12 -10 -15 3 -15 9 0 18 4 22 9 3 6 26 13 50 17 25 3 42 10 39 15 -3
5 1 9 8 9 7 0 23 3 36 6 19 5 21 3 15 -12 -4 -11 -13 -25 -20 -32 -12 -13 -18
-42 -8 -42 2 0 27 33 54 73 46 68 52 73 79 69 26 -3 40 6 109 72 79 77 105 92
98 56 -2 -11 1 -23 7 -26 7 -4 8 -2 4 4 -4 7 -1 12 8 12 13 0 21 -20 18 -50 0
-3 4 -37 9 -75 8 -61 21 -226 23 -292 1 -11 4 -19 9 -16 8 5 5 72 -13 296 -8
94 -8 145 1 187 11 59 41 120 58 120 5 0 11 -39 13 -87 6 -110 26 -168 108
-312 60 -105 149 -221 171 -221 15 0 10 15 -11 37 -10 12 -22 33 -26 47 -3 14
-9 24 -14 21 -4 -2 -13 8 -21 23 -8 15 -16 29 -19 32 -16 15 -53 75 -93 155
-52 101 -79 202 -77 284 1 31 1 61 0 66 -1 6 -1 22 0 38 1 15 -3 27 -9 27 -6
0 -8 -6 -5 -14 3 -8 -4 -16 -18 -20 -37 -9 -44 -6 -23 10 19 14 17 15 -28 9
-38 -6 -46 -5 -42 7 4 9 -3 14 -20 16 -18 1 -25 -3 -25 -16z"/>
        <path d="M1476 812 c12 -26 20 -50 18 -54 -6 -9 34 -21 47 -13 7 5 6 12 -3 23
-8 10 -20 29 -27 43 -7 15 -23 31 -35 37 l-22 10 22 -46z"/>
        <path d="M2130 745 c14 -16 35 -40 48 -52 13 -13 20 -28 17 -33 -3 -6 2 -10
13 -10 26 0 34 -11 21 -27 -9 -10 -6 -13 14 -13 25 0 25 1 12 26 -15 29 -54
68 -113 111 l-37 27 25 -29z"/>
        <path d="M1105 615 c3 -16 6 -36 7 -42 1 -7 5 -13 10 -13 4 0 8 -11 8 -24 0
-14 4 -27 9 -31 5 -3 13 -20 17 -37 3 -18 22 -48 40 -66 19 -19 34 -40 34 -48
0 -8 5 -14 10 -14 18 0 10 40 -10 52 -11 7 -20 18 -20 24 0 6 -25 60 -55 120
-31 60 -53 96 -50 79z"/>
        <path d="M2311 593 c53 -82 99 -165 99 -179 0 -8 -8 -14 -19 -14 -10 0 -30 -9
-45 -21 -14 -11 -26 -17 -26 -12 0 4 -4 1 -10 -7 -12 -19 -36 -6 -141 79 -113
91 -135 105 -65 40 33 -29 73 -66 89 -81 16 -16 34 -28 40 -28 6 0 21 -9 33
-21 l21 -20 44 21 c24 12 51 25 59 29 21 11 56 75 36 68 -12 -5 -23 13 -30 53
-1 3 -6 12 -11 20 -5 8 -10 21 -12 29 -1 8 -7 18 -15 22 -17 11 -6 19 18 13
11 -3 21 -14 21 -26 1 -11 4 -22 6 -24 8 -8 38 9 34 19 -3 11 -134 87 -150 87
-4 0 7 -21 24 -47z"/>
        <path d="M1505 607 c10 -15 20 -25 23 -22 3 2 12 -1 20 -8 12 -10 14 -9 11 1
-2 7 -20 23 -38 34 l-34 22 18 -27z"/>
        <path d="M2655 491 c48 -23 67 -27 39 -7 -11 8 -34 17 -50 21 -25 4 -23 2 11
-14z"/>
        <path d="M2885 383 c19 -46 24 -96 19 -192 -3 -58 -7 -108 -10 -112 -2 -4 0
-10 5 -13 5 -3 11 9 15 27 3 17 9 43 12 57 3 14 7 58 7 99 1 49 6 76 15 78 6
3 12 -4 13 -14 0 -10 3 -13 5 -7 3 7 -5 27 -16 45 -18 29 -21 30 -15 9 6 -24
5 -24 -9 -6 -9 10 -13 22 -11 26 3 5 -2 11 -11 14 -24 9 -27 7 -19 -11z"/>
        <path d="M1742 333 c-30 -43 -83 -153 -74 -153 5 0 26 29 47 65 l37 65 30 -18
c33 -19 68 -70 68 -99 0 -11 9 -28 19 -37 11 -10 24 -30 31 -46 7 -16 18 -31
25 -34 18 -7 2 50 -41 140 -23 49 -47 82 -78 108 l-45 36 -19 -27z"/>
        <path d="M1265 321 c-30 -18 -92 -117 -81 -128 3 -4 6 -1 6 5 0 6 11 23 24 37
13 14 31 36 40 48 9 14 18 18 23 12 4 -5 15 -10 23 -10 8 0 20 -11 27 -24 6
-14 20 -26 30 -27 21 -3 53 -40 53 -60 0 -8 5 -14 10 -14 31 0 -8 83 -49 105
-16 8 -40 28 -53 45 l-23 30 -30 -19z"/>
        <path d="M1123 167 l-21 -42 -16 35 c-8 19 -15 29 -16 22 0 -24 22 -102 30
-102 8 0 54 119 48 126 -2 2 -14 -15 -25 -39z"/>
        <path d="M1784 116 c-7 -7 -24 -22 -40 -33 -16 -12 -26 -25 -21 -29 8 -9 88
45 95 64 5 16 -20 15 -34 -2z"/>
        <path d="M1163 57 c4 -10 7 -25 7 -33 0 -8 5 -14 10 -14 16 0 11 36 -7 51 -15
12 -16 12 -10 -4z"/>
    </g>
</svg>
